<svg width="32" height="32" viewBox="0 0 32 32" fill="none" xmlns="http://www.w3.org/2000/svg">
<path d="M20.9609 25V30C20.9609 30.55 20.5109 31 19.9609 31H15.9609C15.4109 31 14.9609 30.55 14.9609 30V25H17.9609H20.9609Z" fill="#668077"/>
<path d="M17.9609 1C17.9609 1 21.9609 6 21.9609 12C21.9609 18 17.9609 25 17.9609 25C17.9609 25 13.9609 18 13.9609 12C13.9609 6 17.9609 1 17.9609 1Z" fill="#FFE6EA"/>
<path fill-rule="evenodd" clip-rule="evenodd" d="M17.9609 1C12.9309 1 8.58088 4.66 7.38088 9C7.08088 10.09 6.96088 11.08 7.01088 12C7.08088 13.41 7.53088 14.69 8.25088 16C8.93088 17.25 9.87088 18.54 10.9609 20C12.0983 22.3342 13.704 23.8255 14.5733 24.6328C14.7281 24.7766 14.8596 24.8987 14.9609 25H17.9609H20.9609C24.9609 21 28.9609 17 28.9609 12C28.9609 5.92 24.0409 1 17.9609 1ZM17.9609 1C17.9609 1 21.9609 6 21.9609 12C21.9609 18 17.9609 25 17.9609 25C17.9609 25 13.9609 18 13.9609 12C13.9609 6 17.9609 1 17.9609 1Z" fill="#FFC44D"/>
<path d="M10 16H4M9 12H3M18 25H21M18 25C18 25 22 18 22 12C22 6 18 1 18 1M18 25C18 25 14 18 14 12C14 6 18 1 18 1M21 25V30C21 30.553 20.553 31 20 31H16C15.447 31 15 30.553 15 30V25C14.33 24.33 12.344 22.75 11 20H5M21 25C25 21 29 17 29 12C29 5.925 24.075 1 18 1M18 1C12.966 1 8.721 4.382 7.415 8.998" stroke="black" stroke-width="2" stroke-linecap="round" stroke-linejoin="round"/>
</svg>
