<svg width="32" height="32" viewBox="0 0 32 32" fill="none" xmlns="http://www.w3.org/2000/svg">
<path d="M22.9996 7.00024H12.9996H7.00061L11.2406 11.2402L18.0006 18.0002L28.9996 7.00024H22.9996Z" fill="#FFC44D"/>
<path d="M13 7H7L11.24 11.24C10.16 12.33 8.66 13 7 13C3.69 13 1 10.31 1 7C1 3.69 3.69 1 7 1C10.31 1 13 3.69 13 7Z" fill="#FFE6EA"/>
<path d="M11 30.9999H25M18 30.9999V17.9999L29 6.99993H7.00002L16 15.9999M12.2051 4.01363C11.1701 2.21263 9.22612 0.999634 7.00012 0.999634C3.68612 0.999634 1.00012 3.68663 1.00012 6.99963C1.00012 10.3136 3.68612 12.9996 7.00012 12.9996C8.65612 12.9996 10.1561 12.3276 11.2421 11.2426M29 0.999934L23 6.99993" stroke="black" stroke-width="2" stroke-linecap="round" stroke-linejoin="round"/>
</svg>
