<svg fill="none" height="32" viewBox="0 0 32 32" width="32" xmlns="http://www.w3.org/2000/svg"><path d="m20.9609 25v5c0 .55-.45 1-1 1h-4c-.55 0-1-.45-1-1v-5h3z" fill="#668077"/><path d="m17.9609 1s4 5 4 11-4 13-4 13-4-7-4-13 4-11 4-11z" fill="#ffe6ea"/><path clip-rule="evenodd" d="m17.9609 1c-5.03 0-9.38002 3.66-10.58002 8-.3 1.09-.42 2.08-.37 3 .07 1.41.52 2.69 1.24 4 .68 1.25 1.62 2.54 2.71002 4 1.1374 2.3342 2.7431 3.8255 3.6124 4.6328.1548.1438.2863.2659.3876.3672h3 3c4-4 8-8 8-13 0-6.08-4.92-11-11-11zm0 0s4 5 4 11-4 13-4 13-4-7-4-13 4-11 4-11z" fill="#ffc44d" fill-rule="evenodd"/><path d="m10 16h-6m5-4h-6m15 13h3m-3 0s4-7 4-13-4-11-4-11m0 24s-4-7-4-13 4-11 4-11m3 24v5c0 .553-.447 1-1 1h-4c-.553 0-1-.447-1-1v-5c-.67-.67-2.656-2.25-4-5h-6m16 5c4-4 8-8 8-13 0-6.075-4.925-11-11-11m0 0c-5.034 0-9.279 3.382-10.585 7.998" stroke="#000" stroke-linecap="round" stroke-linejoin="round" stroke-width="2"/></svg>