<svg fill="none" height="32" viewBox="0 0 32 32" width="32" xmlns="http://www.w3.org/2000/svg" xmlns:xlink="http://www.w3.org/1999/xlink"><clipPath id="a"><path d="m0 0h32v32h-32z"/></clipPath><g clip-path="url(#a)"><path d="m21 13c0-1.1-.9-2-2-2-.43 0-.82.13-1.15.36-.57-.23-1.19-.36-1.85-.36-2.76 0-5 2.24-5 5s2.24 5 5 5 5-2.24 5-5c0-.66-.13-1.28-.36-1.85.22-.33.36-.72.36-1.15zm1.8-10.36c2.76 1.4 5.02 3.64 6.48 6.38-.09-.01-.18-.02-.28-.02-1.1 0-2 .9-2 2s.9 2 2 2c.61 0 1.16-.28 1.52-.71.3 1.19.48 2.43.48 3.71 0 8.28-6.72 15-15 15s-15-6.72-15-15 6.72-15 15-15c2.44 0 4.76.59 6.8 1.64z" fill="#ffc44d"/><path d="m29.2798 9.02c.97.14 1.72.98 1.72 1.98 0 .49-.18.94-.48 1.29-.36.43-.91.71-1.52.71-1.1 0-2-.9-2-2s.9-2 2-2c.1 0 .19.01.28.02zm-10.2798 1.98c1.1 0 2 .9 2 2 0 .43-.14.82-.36 1.15-.37.51-.97.85-1.64.85-1.1 0-2-.9-2-2 0-.67.34-1.27.85-1.64.33-.23.72-.36 1.15-.36z" fill="#ffe6ea"/><path d="m18.0078 1.13276c-.657-.088-1.327-.133004-2.008-.133004-8.28404 0-15.000044 6.716004-15.000044 15.000044 0 8.284 6.716004 15 15.000044 15 8.284 0 15-6.716 15-15m.0002-4.9998v-10.000044l-10 2.000004v10.00004m10-2c0-1.10404-.896-2.00004-2-2.00004s-2 .896-2 2.00004c0 1.104.896 2 2 2s2-.896 2-2zm-10 2c0-1.104-.896-2-2-2s-2 .896-2 2 .896 2 2 2 2-.896 2-2zm-6.9463-1.6064c-1.794.759-3.054 2.535-3.054 4.606 0 2.762 2.239 5 5 5 2.037 0 3.79-1.218 4.569-2.966m-12.56874-10.03364 2 2m14.00004 14.00004-2-2" stroke="#000" stroke-linecap="round" stroke-linejoin="round" stroke-width="2"/></g></svg>