<svg fill="none" height="32" viewBox="0 0 32 32" width="32" xmlns="http://www.w3.org/2000/svg" xmlns:xlink="http://www.w3.org/1999/xlink"><clipPath id="a"><path d="m0 0h32v32h-32z"/></clipPath><g clip-path="url(#a)"><path d="m24 25.0002h-22c-.55 0-1-.45-1-1v-21.99996c0-.55.45-1 1-1h28c.55 0 1 .45 1 1v27.99996c0 1-.39 1.61-2 0z" fill="#ffc44d"/><path d="m22 11.9902c.55 0 1 .45 1 1s-.45 1-1 1-1-.45-1-1 .45-1 1-1zm-6 .0098c.55 0 1 .45 1 1s-.45 1-1 1-1-.45-1-1 .45-1 1-1zm-6 0c.55 0 1 .45 1 1s-.45 1-1 1-1-.45-1-1 .45-1 1-1z" fill="#ffe6ea"/><path d="m22 23 7 7c1.609 1.609 2 1 2 0v-28c0-.553-.447-1-1-1h-28c-.553 0-1 .447-1 1v22c0 .553.447 1 1 1h18m-3-12.0088c0-.553-.447-1-1-1s-1 .447-1 1 .447 1 1 1 1-.447 1-1zm6 0c0-.553-.447-1-1-1s-1 .447-1 1 .447 1 1 1 1-.447 1-1zm-12 0c0-.553-.447-1-1-1s-1 .447-1 1 .447 1 1 1 1-.447 1-1z" stroke="#000" stroke-linecap="round" stroke-linejoin="round" stroke-width="2"/></g></svg>