<svg fill="none" height="32" viewBox="0 0 32 32" width="32" xmlns="http://www.w3.org/2000/svg"><g fill="#ffc44d"><path d="m16.0002 3.00012 4.999 6.99998h-9.9988z"/><path d="m10.9992 10.0001-4.99903-6.99998-4.9998 6.99998z"/><path d="m30.9992 10.0001-4.999-6.99998-4.9998 6.99998z"/></g><path d="m10.9999 10.0004 5 21 5-21z" stroke="#000" stroke-linecap="round" stroke-linejoin="round" stroke-width="2"/><path d="m16 31.0002-15-21h10z" fill="#ffc44d"/><path d="m16 31.0002 4.9998-21h10z" fill="#ffc44d"/><path d="m10.9994 10.0001-4.99903-6.99998h9.99883z" fill="#ffe6ea"/><path d="m20.9993 10-4.9989-6.99988h9.9988l-4.9999 6.99988-4.9993 21-5.0006-20.9999z" fill="#ffe6ea"/><path d="m6 3-5 7m5-7h20m-20 0 5 7m-10 0 15 21m-15-21h30m-15 21 15-21m-15 21 5-21m-5 21-5-21m20 0-5-7m0 0-5 7m0 0-5-7-5 7" stroke="#000" stroke-linecap="round" stroke-linejoin="round" stroke-width="2"/></svg>