<svg fill="none" height="32" viewBox="0 0 32 32" width="32" xmlns="http://www.w3.org/2000/svg"><path d="m22.9996 7.00024h-10-5.99899l4.23999 4.23996 6.76 6.76 10.999-10.99996z" fill="#ffc44d"/><path d="m13 7h-6l4.24 4.24c-1.08 1.09-2.58 1.76-4.24 1.76-3.31 0-6-2.69-6-6s2.69-6 6-6 6 2.69 6 6z" fill="#ffe6ea"/><path d="m11 30.9999h14m-7 0v-13l11-10.99997h-21.99998l8.99998 8.99997m-3.7949-11.98627c-1.035-1.801-2.97898-3.013996-5.20498-3.013996-3.314 0-6 2.686996-6 5.999996 0 3.31397 2.686 5.99997 6 5.99997 1.656 0 3.15598-.672 4.24198-1.757m17.7579-10.242666-6 5.999996" stroke="#000" stroke-linecap="round" stroke-linejoin="round" stroke-width="2"/></svg>