<svg fill="none" height="32" viewBox="0 0 32 32" width="32" xmlns="http://www.w3.org/2000/svg"><path d="m7 14h23c.39 0 1 0 1 1 0 6.63-5.37 12-12 12-4.07 0-7.67-2.03-9.83-5.12-1-1.43-1.7-3.09-2-4.88 0 0-.17-2-.17-3z" fill="#ffc44d"/><path d="m22 10s-1-1-1-2 1-2 1-2 1-1 1-2-1-2-1-2m-5 8s-1-1-1-2 1-2 1-2 1-1 1-2-1-2-1-2m-6 29h16m-21-8.9971s0-.003-1-.003c-2.209 0-4-1.791-4-4s1.791-4 4-4h25c.386 0 1 0 1 1 0 6.627-5.373 12-12 12-5.946 0-10.883-4.326-11.834-10.002" stroke="#000" stroke-linecap="round" stroke-linejoin="round" stroke-width="2"/></svg>