<svg viewBox="0 0 459.89 105" xmlns="http://www.w3.org/2000/svg"><path d="m410 105h-410l49.89-105h410z" fill="#fff"/><g fill="#2f4858"><path d="m117.55 69.51-14.87 2.8-3.34-17.33h-.28c-.23.7-.68 2.16-1.36 4.39s-1.5 5.03-2.46 8.41h-11.21c-1.1-3.91-1.95-6.81-2.58-8.69s-1.08-3.26-1.36-4.11h-.28c-.3 1.45-.76 3.85-1.37 7.18s-1.22 6.72-1.83 10.15l-14.53-2.8c2.11-9.76 3.74-17.64 4.89-23.65 1.14-6 1.88-9.83 2.22-11.47l15.12-1.33c.34 1.13 1 3.36 1.97 6.68s2.08 7.04 3.33 11.16h.28c1.13-3.36 2.35-7.01 3.64-10.96s2.05-6.24 2.28-6.88l15.83 1.33c.17.96.73 4.44 1.67 10.42.94 5.99 2.36 14.22 4.25 24.7z"/><path d="m163.21 52.64c0 2.96-.56 5.72-1.69 8.27-1.12 2.55-2.87 4.84-5.25 6.88-1.87 1.61-4.12 2.83-6.74 3.67s-5.43 1.26-8.41 1.26-5.74-.4-8.33-1.2-4.86-2.03-6.83-3.67c-2.3-1.96-4.05-4.23-5.24-6.81s-1.78-5.38-1.78-8.4.53-5.61 1.59-8.04c1.06-2.44 2.65-4.63 4.79-6.57 1.96-1.77 4.26-3.12 6.88-4.05 2.62-.92 5.56-1.39 8.81-1.39 3.08 0 5.92.42 8.54 1.25 2.61.83 4.96 2.14 7.04 3.94 2.27 1.96 3.94 4.2 5.01 6.7 1.08 2.5 1.61 5.23 1.61 8.17zm-15.94.1c0-1.19-.19-2.41-.58-3.65s-1.02-2.23-1.91-2.96c-.43-.38-.96-.69-1.59-.95s-1.34-.38-2.15-.38-1.46.13-2.07.38c-.6.26-1.2.66-1.78 1.21-.74.72-1.3 1.66-1.7 2.81s-.59 2.3-.59 3.43c0 1.21.19 2.39.57 3.53s.98 2.1 1.81 2.88c.49.47 1.06.84 1.7 1.09s1.37.38 2.18.38c.72 0 1.39-.13 2.02-.38s1.2-.61 1.71-1.06c.81-.74 1.41-1.71 1.8-2.91s.58-2.34.58-3.42z"/><path d="m200.16 59.97c0 2.27-.66 4.18-1.97 5.73-1.31 1.56-3.1 2.87-5.37 3.92-1.94.91-4.5 1.56-7.67 1.97s-6.13.61-8.86.61c-2.51 0-4.55-.03-6.1-.08s-2.72-.1-3.5-.14l-1.73-12.26c.21.02 1.25.06 3.13.11 1.88.06 3.11.08 3.7.08h2.61c.98 0 1.94-.03 2.86-.08 1.26-.09 2.07-.28 2.41-.55s.51-.58.51-.92c0-.42-.22-.75-.65-1.02-.43-.26-1.25-.62-2.44-1.08-.64-.25-1.6-.64-2.87-1.17-1.27-.54-2.28-1.03-3.02-1.49-1.74-1.06-2.99-2.29-3.77-3.7-.77-1.41-1.16-2.96-1.16-4.66 0-1.08.2-2.12.59-3.13.4-1.01.94-1.87 1.64-2.59 1.87-1.96 4.63-3.51 8.27-4.63s8.11-1.69 13.4-1.69c2.32 0 4.08.02 5.27.06s2.03.08 2.52.11l1.7 12.26c-.87-.04-1.69-.08-2.48-.11-.78-.04-1.76-.06-2.93-.06-1.06 0-1.98.01-2.76.04s-1.65.07-2.59.13c-.91.06-1.58.18-2.01.38s-.65.49-.65.86c0 .43.25.79.75 1.08.5.28 1.27.63 2.31 1.05 1 .4 2.01.8 3.02 1.2 1.01.41 2 .89 2.96 1.46 1.66 1 2.89 2.18 3.7 3.54.8 1.36 1.2 2.95 1.2 4.76z"/><path d="m245.11 68.37-15.58 4.18c-.3-1.15-.64-2.46-1.03-3.94-.39-1.47-.68-2.6-.89-3.37h-10.44c-.11.45-.39 1.54-.83 3.27s-.8 3.07-1.07 4.04l-15.1-4.18c.53-1.3 2.42-6.02 5.66-14.14 3.25-8.12 5.97-14.97 8.16-20.54h17.42c2.53 6.45 5.35 13.61 8.47 21.47s4.86 12.26 5.24 13.21zm-19.89-12.02c-.39-1.43-.85-3.17-1.37-5.21s-1-3.85-1.42-5.43l-.17-.02c-.4 1.53-.89 3.42-1.46 5.68-.58 2.26-1.01 3.92-1.29 4.97v.03h5.73v-.03z"/><path d="m262.53 71.58h-15.55c0-2.23 0-4.95.03-8.16.02-3.21.03-7.27.03-12.18 0-2.25 0-4.95-.03-8.11-.02-3.16-.03-6.32-.03-9.47h15.55c0 2.44 0 5.21-.03 8.31-.02 3.11-.03 6.2-.03 9.27 0 4.83 0 8.56.03 11.19s.03 5.67.03 9.15z"/><path d="m309.57 33.66c0 3.7 0 6.88-.03 9.53-.02 2.65-.03 5.07-.03 7.26 0 2.83 0 6.1.03 9.81.02 3.71.03 6.49.03 8.34l-10.73 3.94c-3.57-4.55-6.8-8.48-9.69-11.79s-4.86-5.55-5.92-6.7l-.23.11c0 2.74 0 5.93.03 9.57s.03 6.26.03 7.84h-14.42c0-1.55 0-4.14.03-7.79s.03-7.6.03-11.87c0-1.79 0-3.98-.03-6.56s-.04-5.4-.06-8.48l11.33-4.16c1.51 1.77 3.42 3.97 5.74 6.58 2.31 2.62 5.43 6.07 9.36 10.35l.17-.08c0-2.23 0-4.74-.03-7.53-.02-2.79-.03-5.59-.03-8.38h14.42z"/><path d="m347.43 45.27c-.83 0-2.12 0-3.88-.01-1.76 0-3.01-.01-3.77-.01-1.08 0-2.61 0-4.6.01-1.99 0-3.56.01-4.71.01v4.16c1.17 0 2.74 0 4.7.01 1.96 0 3.47.01 4.53.01 1.11 0 2.39 0 3.84-.01 1.44 0 2.56-.01 3.36-.01v9.03c-.79 0-2.03 0-3.72-.01-1.69 0-2.87-.01-3.55-.01-1.02 0-2.39 0-4.12.01-1.73 0-3.17.01-4.32.01 0 2.72 0 5.07.03 7.04s.03 4 .03 6.07h-15.55c0-1.55 0-3.63.03-6.26s.03-7.32.03-14.08c0-2.25 0-4.95-.03-8.11-.02-3.16-.03-6.32-.03-9.47 1.13 0 2.99 0 5.58.01 2.59 0 5.55.01 8.89.01 2.72 0 6.03 0 9.94-.01 3.91 0 6.35-.01 7.33-.01v11.61z"/><path d="m394.78 52.64c0 2.96-.56 5.72-1.68 8.27s-2.88 4.84-5.25 6.88c-1.87 1.61-4.12 2.83-6.74 3.67s-5.43 1.26-8.41 1.26-5.74-.4-8.33-1.2-4.86-2.03-6.83-3.67c-2.3-1.96-4.05-4.23-5.24-6.81s-1.78-5.38-1.78-8.4.53-5.61 1.59-8.04 2.65-4.63 4.79-6.57c1.96-1.77 4.26-3.12 6.88-4.05 2.62-.92 5.56-1.39 8.81-1.39 3.08 0 5.92.42 8.54 1.25s4.96 2.14 7.04 3.94c2.27 1.96 3.94 4.2 5.01 6.7 1.08 2.5 1.61 5.23 1.61 8.17zm-15.94.1c0-1.19-.19-2.41-.58-3.65s-1.02-2.23-1.91-2.96c-.43-.38-.96-.69-1.59-.95s-1.34-.38-2.15-.38-1.46.13-2.07.38-1.2.66-1.78 1.21c-.74.72-1.3 1.66-1.7 2.81s-.59 2.3-.59 3.43c0 1.21.19 2.39.57 3.53s.98 2.1 1.81 2.88c.49.47 1.06.84 1.7 1.09s1.37.38 2.18.38c.72 0 1.39-.13 2.03-.38.63-.25 1.2-.61 1.71-1.06.81-.74 1.41-1.71 1.8-2.91s.58-2.34.58-3.42z"/></g></svg>