<svg width="32" height="32" viewBox="0 0 32 32" fill="none" xmlns="http://www.w3.org/2000/svg">
<g clip-path="url(#clip0_901_2984)">
<path d="M30 2.76854C30.96 3.31854 31.28 4.53854 30.73 5.49854L29.23 8.09854C28.68 9.04854 27.46 9.37854 26.5 8.82854L23.9 7.32854C22.94 6.77854 22.62 5.54854 23.17 4.59854L24.67 1.99854C25.22 1.03854 26.44 0.718537 27.4 1.26854L30 2.76854Z" fill="#FFC44D"/>
<path d="M30 25.9985V28.9985C30 30.0985 29.1 30.9985 28 30.9985H25C23.9 30.9985 23 30.0985 23 28.9985V25.9985C23 24.8985 23.9 23.9985 25 23.9985H28C29.1 23.9985 30 24.8985 30 25.9985ZM30 14.9985V17.9985C30 19.0985 29.1 19.9985 28 19.9985H25C23.9 19.9985 23 19.0985 23 17.9985V14.9985C23 13.8985 23.9 12.9985 25 12.9985H28C29.1 12.9985 30 13.8985 30 14.9985ZM19 25.9985V28.9985C19 30.0985 18.1 30.9985 17 30.9985H14C12.9 30.9985 12 30.0985 12 28.9985V25.9985C12 24.8985 12.9 23.9985 14 23.9985H17C18.1 23.9985 19 24.8985 19 25.9985ZM19 14.9985V17.9985C19 19.0985 18.1 19.9985 17 19.9985H14C12.9 19.9985 12 19.0985 12 17.9985V14.9985C12 13.8985 12.9 12.9985 14 12.9985H17C18.1 12.9985 19 13.8985 19 14.9985ZM19 3.99854V6.99854C19 8.09854 18.1 8.99854 17 8.99854H14C12.9 8.99854 12 8.09854 12 6.99854V3.99854C12 2.89854 12.9 1.99854 14 1.99854H17C18.1 1.99854 19 2.89854 19 3.99854ZM8 25.9985V28.9985C8 30.0985 7.1 30.9985 6 30.9985H3C1.9 30.9985 1 30.0985 1 28.9985V25.9985C1 24.8985 1.9 23.9985 3 23.9985H6C7.1 23.9985 8 24.8985 8 25.9985ZM8 14.9985V17.9985C8 19.0985 7.1 19.9985 6 19.9985H3C1.9 19.9985 1 19.0985 1 17.9985V14.9985C1 13.8985 1.9 12.9985 3 12.9985H6C7.1 12.9985 8 13.8985 8 14.9985ZM8 3.99854V6.99854C8 8.09854 7.1 8.99854 6 8.99854H3C1.9 8.99854 1 8.09854 1 6.99854V3.99854C1 2.89854 1.9 1.99854 3 1.99854H6C7.1 1.99854 8 2.89854 8 3.99854Z" fill="#668077"/>
<path fill-rule="evenodd" clip-rule="evenodd" d="M8 25.9995C8 24.8955 7.104 23.9995 6 23.9995H3C1.896 23.9995 1 24.8955 1 25.9995V28.9995C1 30.1035 1.896 30.9995 3 30.9995H6C7.104 30.9995 8 30.1035 8 28.9995V25.9995Z" stroke="black" stroke-width="2" stroke-linecap="round" stroke-linejoin="round"/>
<path fill-rule="evenodd" clip-rule="evenodd" d="M19 25.9995C19 24.8955 18.104 23.9995 17 23.9995H14C12.896 23.9995 12 24.8955 12 25.9995V28.9995C12 30.1035 12.896 30.9995 14 30.9995H17C18.104 30.9995 19 30.1035 19 28.9995V25.9995Z" stroke="black" stroke-width="2" stroke-linecap="round" stroke-linejoin="round"/>
<path fill-rule="evenodd" clip-rule="evenodd" d="M30 25.9995C30 24.8955 29.104 23.9995 28 23.9995H25C23.896 23.9995 23 24.8955 23 25.9995V28.9995C23 30.1035 23.896 30.9995 25 30.9995H28C29.104 30.9995 30 30.1035 30 28.9995V25.9995Z" stroke="black" stroke-width="2" stroke-linecap="round" stroke-linejoin="round"/>
<path fill-rule="evenodd" clip-rule="evenodd" d="M8 14.9995C8 13.8955 7.104 12.9995 6 12.9995H3C1.896 12.9995 1 13.8955 1 14.9995V17.9995C1 19.1035 1.896 19.9995 3 19.9995H6C7.104 19.9995 8 19.1035 8 17.9995V14.9995Z" stroke="black" stroke-width="2" stroke-linecap="round" stroke-linejoin="round"/>
<path fill-rule="evenodd" clip-rule="evenodd" d="M19 14.9995C19 13.8955 18.104 12.9995 17 12.9995H14C12.896 12.9995 12 13.8955 12 14.9995V17.9995C12 19.1035 12.896 19.9995 14 19.9995H17C18.104 19.9995 19 19.1035 19 17.9995V14.9995Z" stroke="black" stroke-width="2" stroke-linecap="round" stroke-linejoin="round"/>
<path fill-rule="evenodd" clip-rule="evenodd" d="M30 14.9995C30 13.8955 29.104 12.9995 28 12.9995H25C23.896 12.9995 23 13.8955 23 14.9995V17.9995C23 19.1035 23.896 19.9995 25 19.9995H28C29.104 19.9995 30 19.1035 30 17.9995V14.9995Z" stroke="black" stroke-width="2" stroke-linecap="round" stroke-linejoin="round"/>
<path fill-rule="evenodd" clip-rule="evenodd" d="M8 3.99953C8 2.89553 7.104 1.99953 6 1.99953H3C1.896 1.99953 1 2.89553 1 3.99953V6.99953C1 8.10353 1.896 8.99953 3 8.99953H6C7.104 8.99953 8 8.10353 8 6.99953V3.99953Z" stroke="black" stroke-width="2" stroke-linecap="round" stroke-linejoin="round"/>
<path fill-rule="evenodd" clip-rule="evenodd" d="M19 3.99953C19 2.89553 18.104 1.99953 17 1.99953H14C12.896 1.99953 12 2.89553 12 3.99953V6.99953C12 8.10353 12.896 8.99953 14 8.99953H17C18.104 8.99953 19 8.10353 19 6.99953V3.99953Z" stroke="black" stroke-width="2" stroke-linecap="round" stroke-linejoin="round"/>
<path fill-rule="evenodd" clip-rule="evenodd" d="M29.999 2.76813L27.401 1.26813C26.444 0.71513 25.222 1.04313 24.669 1.99913L23.169 4.59813C22.616 5.55413 22.944 6.77813 23.901 7.33013L26.499 8.83013C27.456 9.38113 28.679 9.05413 29.231 8.09813L30.731 5.49913C31.283 4.54313 30.956 3.32013 29.999 2.76813Z" stroke="black" stroke-width="2" stroke-linecap="round" stroke-linejoin="round"/>
</g>
<defs>
<clipPath id="clip0_901_2984">
<rect width="32" height="32" fill="white"/>
</clipPath>
</defs>
</svg>
