<svg fill="none" height="32" viewBox="0 0 32 32" width="32" xmlns="http://www.w3.org/2000/svg" xmlns:xlink="http://www.w3.org/1999/xlink"><clipPath id="a"><path d="m0 0h32v32h-32z"/></clipPath><g clip-path="url(#a)"><path clip-rule="evenodd" d="m17 10.9999c0-1.10002-.9-2.00002-2-2.00002h-2c-1.1 0-2 .9-2 2.00002v1.9404h-.0299l-2.10005-10.28998c-.19-1.091-1.21-1.810999-2.29-1.62l-1.95.349c-1.08.191-1.79 1.22-1.61 2.3l2.33995 13.32058h-3.36c-.55 0-1 .45-1 1v5c0 5.96 3 8 8 8h15c2.33 0 4-1.67 4-4v-7l2.96-16.31999c.19-1.08-.52-2.11-1.6-2.3l-1.95-.35c-1.08-.190001-2.1.53-2.29 1.62l-1.9101 9.34999h-.2099v-1c0-1.10002-.9-2.00002-2-2.00002h-2c-1.1 0-2 .9-2 2.00002z" fill="#ffe6ea" fill-rule="evenodd"/><path d="m17 11.001v10c0 1.104.896 2 2 2h2c1.104 0 2-.896 2-2v-10c0-1.10401-.896-2.00001-2-2.00001h-2c-1.104 0-2 .896-2 2.00001zm0 0c0-1.10401-.896-2.00001-2-2.00001h-2c-1.104 0-2 .896-2 2.00001v3m-1.38088-7.01951-.746-4.335c-.19-1.084-1.216-1.808-2.293-1.616l-1.949.346c-1.077.191-1.795 1.225-1.607 2.308l2.333 13.31701m19.01298-9.98681.75-4.368c.188-1.084 1.215-1.808 2.291-1.616l1.948.345c1.076.192 1.793 1.226 1.605 2.309l-2.964 16.31601v7c0 2.333-1.667 4-4 4h-14.99998c-5 0-8-2.042-8-8v-5c0-.552.447-1 1-1h13.99998c.531 0 1 .438 1 1v1c0 2.344-1.656 4-4 4h-5.99998" stroke="#000" stroke-linecap="round" stroke-linejoin="round" stroke-width="2"/></g></svg>