<svg fill="none" height="32" viewBox="0 0 32 32" width="32" xmlns="http://www.w3.org/2000/svg" xmlns:xlink="http://www.w3.org/1999/xlink"><clipPath id="a"><path d="m0 0h32v32h-32z"/></clipPath><g clip-path="url(#a)"><path d="m10 24-1-4-1-4-1-4-1-4h25l-2 14c-.14 1.04-.88 2-2 2z" fill="#ffc44d"/><path d="m23 27c1.1 0 2 .9 2 2s-.9 2-2 2-2-.9-2-2 .9-2 2-2zm-12 0c1.1 0 2 .9 2 2s-.9 2-2 2-2-.9-2-2 .9-2 2-2z" fill="#668077"/><path d="m8 16h-6m7 4h-6m4-8h-6m25 4h-15m14 4h-13m15-8h-17m0 12h17c1.125 0 1.862-.962 2-2l2-14h-25l-2-7h-3m12 28c0-1.104-.896-2-2-2s-2 .896-2 2 .896 2 2 2 2-.896 2-2zm12 0c0-1.104-.896-2-2-2s-2 .896-2 2 .896 2 2 2 2-.896 2-2z" stroke="#000" stroke-linecap="round" stroke-linejoin="round" stroke-width="2"/></g></svg>