<svg fill="none" height="32" viewBox="0 0 32 32" width="32" xmlns="http://www.w3.org/2000/svg" xmlns:xlink="http://www.w3.org/1999/xlink"><clipPath id="a"><path d="m0 0h32v32h-32z"/></clipPath><g clip-path="url(#a)"><path d="m31 18v8c0 1.55-1.25.85-1.25.85l-4.75-1.85v-6l4.76-1.76s1.24-.86 1.24.76z" fill="#668077"/><path d="m18 1c2.76 0 5 2.24 5 5s-2.24 5-5 5-5-2.24-5-5 2.24-5 5-5zm-5 5c0 2.76-2.24 5-5 5s-5-2.24-5-5 2.24-5 5-5 5 2.24 5 5z" fill="#ffe6ea"/><path d="m25 30c0 .55-.45 1-1 1h-22c-.55 0-1-.45-1-1v-16c0-.55.45-1 1-1h22c.55 0 1 .45 1 1z" fill="#668077"/><path d="m17 20c1.1 0 2 .9 2 2s-.9 2-2 2-2-.9-2-2 .9-2 2-2zm-8 0c1.1 0 2 .9 2 2s-.9 2-2 2-2-.9-2-2 .9-2 2-2z" fill="#ffc44d"/><path d="m17 20c1.104 0 2 .896 2 2s-.896 2-2 2-2-.896-2-2 .896-2 2-2zm0 0h-8m0 0c1.104 0 2 .896 2 2s-.896 2-2 2-2-.896-2-2 .896-2 2-2zm19-2 1.76-.76s1.24-.865 1.24.76v8c0 1.547-1.253.849-1.253.849l-4.747-1.849v5c0 .553-.447 1-1 1h-22c-.553 0-1-.447-1-1v-16c0-.553.447-1 1-1h22c.553 0 1 .447 1 1v8m-4.0273-12c1.224-.911 2.027-2.356 2.027-4 0-2.762-2.238-5-5-5-2.761 0-5 2.238-5 5m0 0c0 1.644.804 3.089 2.028 4m-2.028-4c0 1.644-.803 3.089-2.027 4m2.027-4c0-2.762-2.238-5-5-5-2.761 0-5 2.238-5 5 0 1.644.804 3.089 2.028 4" stroke="#000" stroke-linecap="round" stroke-linejoin="round" stroke-width="2"/></g></svg>