<svg fill="none" height="32" viewBox="0 0 32 32" width="32" xmlns="http://www.w3.org/2000/svg" xmlns:xlink="http://www.w3.org/1999/xlink"><clipPath id="a"><path d="m0 0h32v32h-32z"/></clipPath><g clip-path="url(#a)"><path d="m31 25v5c0 .55-.45 1-1 1h-28c-.55 0-1-.45-1-1v-5h18c0 1.1.9 2 2 2s2-.9 2-2z" fill="#668077"/><path d="m13 17 7-4-7-4zm18-15v23h-8c0-1.1-.9-2-2-2s-2 .9-2 2h-18v-23c0-.55.45-1 1-1h28c.55 0 1 .45 1 1z" fill="#ffe6ea"/><path d="m21 23c1.1 0 2 .9 2 2s-.9 2-2 2-2-.9-2-2 .9-2 2-2z" fill="#ffc44d"/><path d="m20 13-7 4v-8z" fill="#ffc44d"/><path d="m19 25h-18v5c0 .553.447 1 1 1h28c.553 0 1-.447 1-1v-28c0-.553-.447-1-1-1h-28c-.553 0-1 .447-1 1v20m18 3c0-1.104.896-2 2-2s2 .896 2 2m-4 0c0 1.104.896 2 2 2s2-.896 2-2m0 0h5m-15-16v8l7-4z" stroke="#000" stroke-linecap="round" stroke-linejoin="round" stroke-width="2"/></g></svg>